%TF.GenerationSoftware,KiCad,Pcbnew,8.0.0*%
%TF.CreationDate,2024-04-12T16:45:46+09:00*%
%TF.ProjectId,putter,70757474-6572-42e6-9b69-6361645f7063,rev?*%
%TF.SameCoordinates,Original*%
%TF.FileFunction,Drillmap*%
%TF.FilePolarity,Positive*%
%FSLAX45Y45*%
G04 Gerber Fmt 4.5, Leading zero omitted, Abs format (unit mm)*
G04 Created by KiCad (PCBNEW 8.0.0) date 2024-04-12 16:45:46*
%MOMM*%
%LPD*%
G01*
G04 APERTURE LIST*
%ADD10C,0.050000*%
%ADD11C,0.200000*%
G04 APERTURE END LIST*
D10*
X9550000Y-6000000D02*
X13700000Y-6000000D01*
X13700000Y-7400000D01*
X9550000Y-7400000D01*
X9550000Y-6000000D01*
D11*
X9808277Y-7713984D02*
X9808277Y-7513984D01*
X9808277Y-7513984D02*
X9855896Y-7513984D01*
X9855896Y-7513984D02*
X9884467Y-7523508D01*
X9884467Y-7523508D02*
X9903515Y-7542555D01*
X9903515Y-7542555D02*
X9913039Y-7561603D01*
X9913039Y-7561603D02*
X9922563Y-7599698D01*
X9922563Y-7599698D02*
X9922563Y-7628269D01*
X9922563Y-7628269D02*
X9913039Y-7666365D01*
X9913039Y-7666365D02*
X9903515Y-7685412D01*
X9903515Y-7685412D02*
X9884467Y-7704460D01*
X9884467Y-7704460D02*
X9855896Y-7713984D01*
X9855896Y-7713984D02*
X9808277Y-7713984D01*
X10008277Y-7713984D02*
X10008277Y-7580650D01*
X10008277Y-7618746D02*
X10017801Y-7599698D01*
X10017801Y-7599698D02*
X10027324Y-7590174D01*
X10027324Y-7590174D02*
X10046372Y-7580650D01*
X10046372Y-7580650D02*
X10065420Y-7580650D01*
X10132086Y-7713984D02*
X10132086Y-7580650D01*
X10132086Y-7513984D02*
X10122563Y-7523508D01*
X10122563Y-7523508D02*
X10132086Y-7533031D01*
X10132086Y-7533031D02*
X10141610Y-7523508D01*
X10141610Y-7523508D02*
X10132086Y-7513984D01*
X10132086Y-7513984D02*
X10132086Y-7533031D01*
X10255896Y-7713984D02*
X10236848Y-7704460D01*
X10236848Y-7704460D02*
X10227324Y-7685412D01*
X10227324Y-7685412D02*
X10227324Y-7513984D01*
X10360658Y-7713984D02*
X10341610Y-7704460D01*
X10341610Y-7704460D02*
X10332086Y-7685412D01*
X10332086Y-7685412D02*
X10332086Y-7513984D01*
X10589229Y-7713984D02*
X10589229Y-7513984D01*
X10589229Y-7513984D02*
X10655896Y-7656841D01*
X10655896Y-7656841D02*
X10722563Y-7513984D01*
X10722563Y-7513984D02*
X10722563Y-7713984D01*
X10903515Y-7713984D02*
X10903515Y-7609222D01*
X10903515Y-7609222D02*
X10893991Y-7590174D01*
X10893991Y-7590174D02*
X10874944Y-7580650D01*
X10874944Y-7580650D02*
X10836848Y-7580650D01*
X10836848Y-7580650D02*
X10817801Y-7590174D01*
X10903515Y-7704460D02*
X10884467Y-7713984D01*
X10884467Y-7713984D02*
X10836848Y-7713984D01*
X10836848Y-7713984D02*
X10817801Y-7704460D01*
X10817801Y-7704460D02*
X10808277Y-7685412D01*
X10808277Y-7685412D02*
X10808277Y-7666365D01*
X10808277Y-7666365D02*
X10817801Y-7647317D01*
X10817801Y-7647317D02*
X10836848Y-7637793D01*
X10836848Y-7637793D02*
X10884467Y-7637793D01*
X10884467Y-7637793D02*
X10903515Y-7628269D01*
X10998753Y-7580650D02*
X10998753Y-7780650D01*
X10998753Y-7590174D02*
X11017801Y-7580650D01*
X11017801Y-7580650D02*
X11055896Y-7580650D01*
X11055896Y-7580650D02*
X11074944Y-7590174D01*
X11074944Y-7590174D02*
X11084467Y-7599698D01*
X11084467Y-7599698D02*
X11093991Y-7618746D01*
X11093991Y-7618746D02*
X11093991Y-7675888D01*
X11093991Y-7675888D02*
X11084467Y-7694936D01*
X11084467Y-7694936D02*
X11074944Y-7704460D01*
X11074944Y-7704460D02*
X11055896Y-7713984D01*
X11055896Y-7713984D02*
X11017801Y-7713984D01*
X11017801Y-7713984D02*
X10998753Y-7704460D01*
X11179705Y-7694936D02*
X11189229Y-7704460D01*
X11189229Y-7704460D02*
X11179705Y-7713984D01*
X11179705Y-7713984D02*
X11170182Y-7704460D01*
X11170182Y-7704460D02*
X11179705Y-7694936D01*
X11179705Y-7694936D02*
X11179705Y-7713984D01*
X11179705Y-7590174D02*
X11189229Y-7599698D01*
X11189229Y-7599698D02*
X11179705Y-7609222D01*
X11179705Y-7609222D02*
X11170182Y-7599698D01*
X11170182Y-7599698D02*
X11179705Y-7590174D01*
X11179705Y-7590174D02*
X11179705Y-7609222D01*
M02*
